<?xml version="1.0" encoding="UTF-8"?>
<svg enable-background="new 0 0 90 90" version="1.1" viewBox="0 0 90 90" xmlns="http://www.w3.org/2000/svg">
 <g fill="none">
  <path d="m43.5 54.2c-0.3 0.1-0.7 0.2-1.1 0.3-0.2 0.2-0.4 0.4-0.4 0.5-0.1 0.1-0.1 0.2-0.1 0.4 0 0.1 0 0.2 0.1 0.4 0 0.1 0.1 0.1 0.1 0.2 0.3 0.4 0.9 0.8 1.7 1.1h0.1c0.1 0.1 0.3 0.1 0.4 0.2 0.6 0.2 1.2 0.3 2 0.4 0.6 0.1 1.2 0.1 1.8 0.1h0.7 0.1c0.8 0 1.5-0.1 2.2-0.3h0.2c0.1 0 0.2-0.1 0.3-0.1s0.2-0.1 0.4-0.1c1.1-0.4 1.8-0.9 2.2-1.3l0.1-0.1c0.2-0.2 0.2-0.4 0.2-0.5s-0.1-0.3-0.2-0.5l-0.3-0.3c-0.1-0.1-0.3-0.3-0.5-0.4-0.4-0.2-0.8-0.4-1.3-0.6h-0.4-0.3-0.5-1.1c-0.3 0-0.6 0-0.8-0.1-0.5-0.1-0.9-0.1-1.4-0.2-0.4-0.1-0.7-0.2-1-0.3-0.5 0.1-1 0.1-1.4 0.2-0.6 0.4-1.2 0.7-1.8 1z"/>
  <path d="m53 45.9c-0.6-0.1-1.3-0.1-2-0.1-2.1 0-3.7 0.4-4.7 0.9-0.1 0-0.1 0.1-0.2 0.1 0.9 0.8 1.4 1.8 1.4 2.9v0.3 0.1 0.1c0.1 0 0.3 0.1 0.4 0.1h0.1c0.8 0.2 1.8 0.3 2.9 0.3h0.2 1.1 0.4c3-0.3 4.7-1.5 4.8-2.3v-0.1c0-0.7-1.5-1.9-4.4-2.3z"/>
  <path d="m48.9 63.5c-0.3-0.2-0.6-0.3-0.8-0.5-0.1 0-0.1-0.1-0.2-0.1-0.9-0.7-1.5-1.4-1.8-2.3-0.7-0.1-1.4-0.2-2.1-0.4-1.7 0.1-3 0.4-3.9 0.9-0.1 0-0.1 0.1-0.2 0.1-0.3 0.2-0.6 0.3-0.8 0.5-0.3 0.2-0.5 0.5-0.6 0.7 0 0.1-0.1 0.2-0.1 0.3 0 0.2 0.1 0.4 0.4 0.7s0.7 0.6 1.2 0.8c0.8 0.4 1.8 0.7 3.1 0.8 0.5 0.1 1.1 0.1 1.7 0.1h0.6c0.9 0 1.8-0.2 2.5-0.3 0.5-0.1 0.9-0.2 1.3-0.4 0.1 0 0.1 0 0.2-0.1l0.6-0.3c-0.3-0.1-0.5-0.2-0.7-0.3-0.3-0.1-0.3-0.2-0.4-0.2z"/>
  <path d="m52.2 61.6c0.5 0.1 1.1 0.2 1.8 0.3 0.4 0 0.8 0.1 1.2 0.1 0.7 0 1.3 0 1.9-0.1 1.9-0.3 3.3-0.9 4-1.5l0.4-0.4c0.1-0.1 0.1-0.3 0.1-0.4 0-0.2-0.1-0.4-0.3-0.6l-0.3-0.3c-0.7-0.6-2-1.2-3.9-1.4-0.2 0.4-0.5 0.8-0.9 1.1-0.2 0.1-0.3 0.3-0.5 0.4-0.3 0.2-0.5 0.4-0.8 0.5-0.2 0.1-0.3 0.2-0.5 0.3-0.4 0.2-0.8 0.4-1.3 0.5-0.5 0.2-1 0.3-1.5 0.4s-1.1 0.2-1.7 0.3c0.5 0.3 1.3 0.7 2.3 0.9-0.1-0.1-0.1-0.1 0-0.1z"/>
  <path d="m26.5 55.7c0 0.1-0.1 0.2-0.1 0.2 0 0.2 0.1 0.4 0.3 0.6 0.1 0.1 0.3 0.3 0.5 0.4 0.1 0.1 0.3 0.2 0.5 0.3 1.1 0.6 2.8 1.1 5.1 1.1h0.1 0.3 0.4c0.9 0 1.6-0.2 2.3-0.3 0.1 0 0.2 0 0.2-0.1 0.4-0.1 0.8-0.3 1.2-0.4h0.1c0.7-0.3 1.1-0.6 1.4-1 0.1-0.1 0.2-0.2 0.2-0.3-0.1-0.3-0.1-0.6-0.1-0.9-0.1-0.1-0.2-0.2-0.4-0.3h-0.3-0.1-0.9-0.6c-0.5 0-1-0.1-1.4-0.2-1.4-0.3-2.6-0.7-3.6-1.2-3 0.2-4.8 1.3-5.1 2.1z"/>
  <path d="m41.8 47.7c-1-0.3-2.2-0.5-3.6-0.5h-0.5-0.1c-2.3 0.1-4 0.7-4.9 1.3-0.6 0.4-0.9 0.8-0.9 1.1 0 0.2 0.1 0.4 0.3 0.6l0.3 0.3c0.3 0.3 0.7 0.5 1.3 0.7 0.6 0.3 1.4 0.5 2.4 0.6 0.2 0 0.4 0.1 0.6 0.1 0.5 0 0.9 0.1 1.5 0.1h1.1 0.1 0.4c0.5-0.1 1-0.1 1.4-0.2 0.8-0.2 1.5-0.4 2-0.7 0.4-0.2 0.6-0.4 0.9-0.6 0.4-0.3 0.6-0.6 0.6-0.9 0-0.1 0-0.2-0.1-0.3-0.4-0.5-1.3-1.1-2.8-1.6z"/>
  <path d="m31.1 17.5c0.3 0.2 0.7 0.4 1.1 0.6 3.2 1.6 7.8 2.6 12.5 2.6s9.3-0.9 12.5-2.6c0.4-0.2 0.7-0.4 1.1-0.6 1.9-1.2 3-2.5 3-3.7 0-0.5-0.2-1.1-0.6-1.6-0.7-0.9-1.9-1.8-3.5-2.6-3.3-1.7-7.8-2.6-12.5-2.6s-9.3 0.9-12.5 2.6c-1.6 0.8-2.8 1.7-3.5 2.6-0.4 0.6-0.6 1.1-0.6 1.6 0 1.2 1.1 2.6 3 3.7z"/>
  <path d="m44.7 36.7c12.4 0 22.9-4.8 23.1-10.6v-0.6c0-1.7-1.3-3.5-3.6-5.1-3.8 3.8-10.9 6.2-19.5 6.2-8.5 0-15.7-2.4-19.5-6.2-2.3 1.6-3.6 3.5-3.6 5.2v0.5c0.2 5.8 10.7 10.6 23.1 10.6z"/>
  <path d="m22.7 61.7c0 0.2 0.1 0.4 0.3 0.6 0.7 0.8 2.8 1.9 6.1 1.9 1.4 0 2.5-0.2 3.5-0.5 0.5-0.1 0.9-0.3 1.3-0.5 0.8-0.4 1.3-0.8 1.5-1.2 0.1-0.1 0.1-0.2 0.1-0.3 0-0.2-0.1-0.4-0.3-0.6-0.7 0.1-1.5 0.2-2.4 0.2-2 0-3.8-0.3-5.2-0.9-0.1-0.1-0.3-0.1-0.4-0.2h-0.1c-0.2-0.1-0.5-0.2-0.7-0.3-0.1-0.1-0.3-0.2-0.4-0.3h-0.1c-0.5 0.1-0.9 0.3-1.3 0.4-1.2 0.6-1.9 1.3-1.9 1.7z"/>
  <path d="m61.9 55.4c-0.1 0-0.2 0.1-0.3 0.1 0.9 0.5 1.5 1 2 1.7 0 0 0 0.1 0.1 0.1 0.4-0.3 0.6-0.6 0.6-0.9 0-0.4-0.5-0.9-1.3-1.4-0.4 0.2-0.8 0.3-1.1 0.4z"/>
  <path d="m22.9 55.7c0-0.5 0.1-1 0.3-1.5-0.8-0.6-1.4-1.4-1.7-2.2v6.5c0.5-0.4 1.1-0.8 1.9-1.1-0.3-0.5-0.5-1.1-0.5-1.7z"/>
  <path d="m60.3 48.7c-0.1 0.9-0.6 1.7-1.3 2.4-0.7 0.6-1.6 1.2-2.6 1.6 0.2 0.2 0.3 0.3 0.4 0.5h0.5c2.7 0 4.5-0.7 5.5-1.4 0.5-0.4 0.8-0.8 0.8-1.1-0.1-0.5-1.2-1.5-3.3-2z"/>
  <path d="m24.3 50.9c0 0.3 0.3 0.8 1 1.2l0.6 0.3c0.9-0.6 2-1.1 3.3-1.4-0.1-0.1-0.1-0.3-0.1-0.4-0.1-0.3-0.1-0.6-0.1-0.9 0-0.4 0.1-0.8 0.2-1.2-3.2 0.3-4.9 1.6-4.9 2.4z"/>
  <path d="m61.9 72c1.8-0.5 2.7-1.4 2.7-1.9s-1-1.4-2.8-2c-0.2 0.2-0.4 0.4-0.7 0.5 0.1 0.3 0.1 0.6 0.1 1 0 0.6-0.1 1.1-0.4 1.7 0.5 0.2 0.8 0.4 1.1 0.7z"/>
  <path d="m64.3 62.4c0-0.2-0.2-0.6-0.6-0.9-0.8 1.1-2.2 2-4 2.6-1 0.3-2 0.5-3.2 0.6 0.4 0 0.9 0.1 1.4 0.1 0.8 0 1.6-0.1 2.3-0.2 2.7-0.4 4.1-1.5 4.1-2.2z"/>
  <path d="m67.8 32.3c-4.3 4.4-12.9 7.3-23.1 7.3s-18.8-2.9-23.1-7.3v17.4c0.9-2.5 4.5-4.2 9.1-4.2 0.5 0 1 0 1.5 0.1 1.6-0.8 3.7-1.2 6.1-1.2 1.9 0 3.7 0.3 5.1 0.8 1.6-1.4 4.4-2.3 7.7-2.3 3.5 0 6.5 1 8.1 2.7 4.3 0.5 7.4 2.6 7.4 5.3 0 0.9-0.4 1.8-1 2.5 1.1 0.9 1.7 2 1.7 3.2 0 1.1-0.5 2.1-1.4 2.9 1 0.9 1.5 1.9 1.5 3v0.4c0.2 0.1 0.4 0.3 0.6 0.4v-31z"/>
  <path d="m67.4 71.2c-0.5 1.5-2 2.7-4 3.4v0.3c0 3.1-4 5.4-9.3 5.4-1.1 0-2.2-0.1-3.1-0.3-0.9 0.2-1.9 0.3-3 0.3-1.6 0.9-3.9 1.4-6.4 1.4-4.4 0-7.9-1.6-8.9-3.9-1 0.2-2.1 0.3-3.3 0.3-2 0-3.8-0.3-5.2-0.9 3.7 3.2 11.2 5.7 20.6 5.7 13.5 0 23-5.2 23.1-10v-0.1-0.1c-0.1-0.4-0.3-0.9-0.5-1.5z"/>
  <path d="m30.2 75.3v0c-2-1-3.2-2.3-3.4-3.9v-0.3-0.4c-2.6 0.5-3.9 1.6-3.9 2.2 0 0.8 2.2 2.4 6.3 2.4h1z"/>
  <path d="m56.3 77.2c2.3-0.4 3.6-1.2 4-1.9 0.1-0.1 0.1-0.3 0.1-0.4 0-0.4-0.6-1.1-1.7-1.6-0.5 0.3-1.1 0.6-1.7 0.8 0.1 0.3 0.1 0.5 0.1 0.8v0.4c-0.1 0.7-0.4 1.4-0.8 1.9z"/>
  <path d="m44.3 68.4c0.4-0.1 0.8-0.3 1.1-0.5h-0.7-0.9c-0.2 0-0.5 0-0.7-0.1-0.4 0-0.7-0.1-1.1-0.1-1.3-0.2-2.5-0.6-3.4-1.1-0.5-0.3-1-0.6-1.4-0.9-0.1 0-0.1-0.1-0.2-0.1l-0.6-0.6-0.9 0.6c-0.3 0.2-0.7 0.3-1 0.5-0.1 0-0.1 0.1-0.2 0.1-0.1 0.1-0.1 0.2-0.1 0.3 0 0.3 0.3 0.7 0.8 1.1 0.6 0.4 1.5 0.8 2.7 1.1 0.4 0.1 0.8 0.1 1.2 0.2 0.5 0.1 1 0.1 1.6 0.1 0.8 0 1.6-0.1 2.3-0.2 0.6-0.1 1.1-0.2 1.5-0.4z"/>
  <path d="m35.3 73.5h0.8c0.6 0 1.1 0 1.6-0.1 0.3 0 0.5-0.1 0.8-0.1 0.2 0 0.3-0.1 0.4-0.1 0.3-0.5 0.6-0.9 1.1-1.3-0.6 0-1.1-0.1-1.7-0.1-0.4-0.1-0.8-0.1-1.2-0.2-0.2 0-0.5-0.1-0.7-0.2-0.7-0.2-1.3-0.4-1.9-0.7-0.1-0.1-0.2-0.1-0.3-0.2-0.8-0.4-1.5-0.9-2-1.4-0.9 0.3-1.6 0.7-2 1.1-0.1 0.1-0.2 0.1-0.2 0.2l-0.1 0.1c-0.2 0.2-0.2 0.4-0.2 0.5 0 0.7 1.4 1.8 4.1 2.3 0.5 0.1 1 0.1 1.5 0.2z"/>
  <path d="m38.7 76.2c-0.8 0.1-1.6 0.2-2.4 0.2-0.3 0.2-0.6 0.4-0.9 0.5 0.7 0.8 2.6 1.8 5.7 1.9-1.1-0.7-2-1.6-2.4-2.6z"/>
  <path d="m45.6 77.2c0.5 0.1 1 0.1 1.6 0.2h0.6c1.1 0 2.1-0.1 3-0.3h0.2c2.1-0.5 3.2-1.5 3.2-2.1v-0.1-0.1h-0.2c-0.6 0.1-1.3 0.1-1.9 0.1-0.5 0-1 0-1.5-0.1-0.9-0.1-1.8-0.2-2.5-0.4-1-0.3-2-0.7-2.7-1.1-0.1-0.1-0.3-0.2-0.4-0.3-0.1 0-0.1-0.1-0.2-0.1-1.1 0.3-1.9 0.7-2.4 1.1s-0.7 0.7-0.7 1c0 0.1 0.1 0.3 0.2 0.5 0.2 0.6 1.5 1.4 3.7 1.7z"/>
  <path d="m55.2 71.6c1.5-0.4 2.5-1 2.9-1.5 0.1-0.1 0.1-0.1 0.1-0.2 0.1-0.1 0.1-0.2 0.1-0.3 0-0.5-0.9-1.4-2.7-1.9-0.3 0-0.6-0.1-0.9-0.2s-0.7-0.1-1-0.2c-0.5-0.1-1.1-0.1-1.7-0.1h-1c-0.5 0-0.9 0.1-1.3 0.1-0.2 0.8-0.6 1.5-1.3 2.1l-0.2 0.2c-0.5 0.4-1.1 0.8-1.7 1.1 0.2 0.2 0.5 0.3 0.8 0.5 0.6 0.3 1.3 0.5 2.1 0.6 0.7 0.1 1.6 0.2 2.5 0.2 0.8 0 1.5-0.1 2.2-0.2 0.4 0 0.8-0.1 1.1-0.2z"/>
 </g>
 <path d="m73.7 25.6c0-4-2.5-7.5-6.7-10.3 0.1-0.5 0.1-1 0.1-1.5 0-7.2-9.7-12.7-22.5-12.7s-22.4 5.5-22.4 12.7c0 0.5 0.1 1 0.1 1.5-4.2 2.8-6.7 6.3-6.7 10.3v47.4c0 9 12.7 16 29 16s29-7 29-16c0.1 0 0.1-47.4 0.1-47.4zm-45-13.4c0.7-0.9 1.9-1.8 3.5-2.6 3.2-1.7 7.8-2.6 12.5-2.6s9.3 0.9 12.5 2.6c1.6 0.8 2.8 1.7 3.5 2.6 0.4 0.6 0.6 1.1 0.6 1.6 0 1.2-1.1 2.5-3 3.7-0.3 0.2-0.7 0.4-1.1 0.6-3.2 1.6-7.8 2.6-12.5 2.6s-9.3-0.9-12.5-2.6c-0.4-0.2-0.7-0.4-1.1-0.6-1.9-1.2-3-2.5-3-3.7 0-0.5 0.2-1.1 0.6-1.6zm-3.5 8.2c3.8 3.8 10.9 6.2 19.5 6.2 8.5 0 15.7-2.4 19.5-6.2 2.3 1.6 3.6 3.4 3.6 5.1v0.6c-0.3 5.8-10.7 10.6-23.1 10.6s-22.8-4.8-23.1-10.6v-0.5c0-1.8 1.3-3.6 3.6-5.2zm-3.6 31.6c0.3 0.8 0.9 1.6 1.7 2.2-0.2 0.5-0.3 1-0.3 1.5 0 0.6 0.2 1.2 0.5 1.8-0.7 0.3-1.3 0.7-1.9 1.1v-6.6zm7.4-1.4c0 0.1 0.1 0.3 0.1 0.4-1.3 0.3-2.4 0.8-3.3 1.4l-0.6-0.3c-0.6-0.4-1-0.8-1-1.2 0-0.7 1.7-2 4.8-2.4-0.1 0.4-0.2 0.8-0.2 1.2 0.1 0.3 0.2 0.6 0.2 0.9zm33.7 1.2c-1 0.7-2.9 1.4-5.5 1.4h-0.5c-0.1-0.2-0.3-0.3-0.4-0.5 1.1-0.4 2-1 2.6-1.6 0.7-0.7 1.2-1.5 1.3-2.4 2.1 0.5 3.3 1.5 3.3 2.1 0 0.2-0.2 0.6-0.8 1zm1.5 4.6c0 0.2-0.2 0.5-0.6 0.9 0 0 0-0.1-0.1-0.1-0.5-0.6-1.2-1.2-2-1.7 0.1 0 0.2-0.1 0.3-0.1 0.4-0.1 0.7-0.2 1-0.4 1 0.5 1.4 1.1 1.4 1.4zm-14.4 4.3c0.6-0.1 1.2-0.1 1.7-0.3 0.5-0.1 1-0.2 1.5-0.4 0.4-0.1 0.9-0.3 1.3-0.5 0.2-0.1 0.4-0.2 0.5-0.3 0.3-0.2 0.6-0.4 0.8-0.5s0.3-0.3 0.5-0.4c0.4-0.3 0.7-0.7 0.9-1.1 1.9 0.2 3.2 0.8 3.9 1.4l0.3 0.3c0.2 0.2 0.3 0.4 0.3 0.6 0 0.1 0 0.2-0.1 0.4-0.1 0.1-0.2 0.3-0.4 0.4-0.7 0.6-2 1.2-4 1.5-0.6 0.1-1.2 0.1-1.9 0.1-0.4 0-0.8 0-1.2-0.1-0.7-0.1-1.3-0.1-1.8-0.3h-0.1c-0.9-0.2-1.7-0.5-2.2-0.8zm0 3.3-0.6 0.3c-0.1 0-0.1 0-0.2 0.1-0.4 0.1-0.8 0.3-1.3 0.4-0.7 0.2-1.5 0.3-2.5 0.3h-0.6c-0.6 0-1.2 0-1.7-0.1-1.3-0.2-2.3-0.5-3.1-0.8-0.5-0.3-0.9-0.5-1.2-0.8-0.2-0.2-0.4-0.5-0.4-0.7 0-0.1 0-0.2 0.1-0.3 0.1-0.2 0.3-0.4 0.6-0.7 0.2-0.2 0.5-0.3 0.8-0.5 0.1 0 0.1-0.1 0.2-0.1 0.9-0.4 2.2-0.8 3.9-0.9 0.6 0.2 1.3 0.3 2.1 0.4 0.3 0.9 0.9 1.7 1.8 2.3 0.2 0.1 0.3 0.1 0.3 0.1 0.3 0.2 0.5 0.3 0.8 0.5 0.1 0 0.2 0.1 0.2 0.1 0.4 0.1 0.6 0.3 0.8 0.4zm7.6-15.7c-0.2 0.7-1.8 1.9-4.8 2.3h-0.4-1.1-0.2c-1.1 0-2.1-0.1-2.9-0.3h-0.1c-0.1 0-0.3-0.1-0.4-0.1v-0.1-0.1-0.3c0-1.1-0.5-2.1-1.4-2.9 0.1 0 0.1-0.1 0.2-0.1 1.1-0.5 2.7-0.9 4.7-0.9 0.7 0 1.4 0.1 2 0.1 2.8 0.4 4.3 1.6 4.3 2.3 0.1 0 0.1 0.1 0.1 0.1zm-10.7 4.7c0.3 0.1 0.7 0.2 1 0.3 0.4 0.1 0.9 0.2 1.4 0.2 0.3 0 0.6 0.1 0.8 0.1h1.1 0.5 0.3 0.4c0.5 0.2 1 0.4 1.3 0.6 0.2 0.1 0.4 0.3 0.5 0.4l0.3 0.3c0.1 0.2 0.2 0.3 0.2 0.5s-0.1 0.3-0.2 0.5l-0.1 0.1c-0.4 0.4-1.1 0.9-2.2 1.3-0.1 0-0.2 0.1-0.4 0.1-0.1 0-0.2 0.1-0.3 0.1h-0.2c-0.6 0.1-1.4 0.3-2.2 0.3h-0.1-0.7c-0.7 0-1.3 0-1.8-0.1-0.8-0.1-1.4-0.3-2-0.4-0.1 0-0.3-0.1-0.4-0.2h-0.1c-0.8-0.3-1.4-0.8-1.7-1.1-0.1-0.1-0.1-0.2-0.1-0.3-0.1-0.1-0.1-0.3-0.1-0.4s0-0.2 0.1-0.4 0.2-0.3 0.4-0.5c0.4-0.1 0.7-0.2 1.1-0.3 0.7-0.3 1.3-0.6 1.8-0.9 0.4-0.1 0.9-0.1 1.4-0.2zm-2.7-2.5c-0.2 0.2-0.5 0.4-0.9 0.6-0.5 0.3-1.2 0.5-2 0.7-0.4 0.1-0.9 0.2-1.4 0.2h-0.4-0.1-1.1c-0.5 0-1 0-1.5-0.1-0.2 0-0.4 0-0.6-0.1-0.9-0.1-1.7-0.4-2.4-0.6-0.5-0.2-1-0.5-1.3-0.7l-0.3-0.3c-0.2-0.2-0.3-0.4-0.3-0.6 0-0.3 0.3-0.7 0.9-1.1 0.9-0.6 2.6-1.2 4.9-1.3h0.1 0.5c1.4 0 2.6 0.2 3.6 0.5 1.5 0.4 2.4 1.1 2.7 1.6 0.1 0.1 0.1 0.2 0.1 0.3 0 0.3-0.2 0.6-0.5 0.9zm-8.7 4.3c0.5 0.1 0.9 0.1 1.4 0.2h0.6 0.9 0.1 0.3c0.1 0.1 0.3 0.2 0.4 0.3 0 0.3 0.1 0.6 0.1 0.9 0 0.1-0.1 0.2-0.2 0.3-0.3 0.3-0.8 0.7-1.4 1h-0.1c-0.3 0.2-0.7 0.3-1.2 0.4-0.1 0-0.2 0-0.2 0.1-0.7 0.2-1.4 0.3-2.3 0.3h-0.4-0.3-0.1c-2.3 0-4.1-0.5-5.1-1.1-0.2-0.1-0.3-0.2-0.5-0.3s-0.4-0.3-0.5-0.4c-0.2-0.2-0.3-0.4-0.3-0.6 0-0.1 0-0.2 0.1-0.2 0.3-0.8 2.1-1.9 5.1-2.1 0.9 0.5 2.2 1 3.6 1.2zm-10.7 5.3c0.4-0.2 0.8-0.3 1.3-0.4h0.1c0.1 0.1 0.3 0.2 0.4 0.3 0.2 0.1 0.4 0.2 0.7 0.3h0.1c0.1 0.1 0.3 0.1 0.4 0.2 1.5 0.6 3.3 0.9 5.2 0.9 0.8 0 1.6-0.1 2.4-0.2 0.2 0.2 0.3 0.4 0.3 0.6 0 0.1 0 0.2-0.1 0.3-0.2 0.4-0.7 0.8-1.5 1.2-0.4 0.2-0.8 0.3-1.3 0.5-0.9 0.3-2.1 0.5-3.5 0.5-3.3 0-5.4-1-6.1-1.9-0.2-0.2-0.3-0.4-0.3-0.6 0-0.5 0.7-1.2 1.9-1.7zm-1.7 12.8c0-0.6 1.4-1.8 3.9-2.2v0.4 0.3c0.1 1.6 1.4 3 3.3 3.9h0.1-1c-4 0-6.3-1.6-6.3-2.4zm6.9-1.9c0-0.2 0.1-0.3 0.2-0.5l0.3-0.3c0.4-0.4 1.1-0.8 2-1.1 0.5 0.5 1.2 1 2 1.4 0.1 0.1 0.2 0.1 0.3 0.2 0.6 0.3 1.2 0.5 1.9 0.7 0.2 0.1 0.5 0.1 0.7 0.2 0.4 0.1 0.8 0.1 1.2 0.2 0.5 0.1 1.1 0.1 1.7 0.1-0.5 0.4-0.8 0.8-1.1 1.3-0.1 0-0.3 0.1-0.4 0.1-0.3 0-0.5 0.1-0.8 0.1-0.5 0.1-1 0.1-1.6 0.1h-0.8c-0.5 0-1-0.1-1.5-0.2-2.7-0.5-4.1-1.6-4.1-2.3zm6.6 5.4c0.8 0 1.6-0.1 2.4-0.2 0.4 1 1.2 1.9 2.4 2.6-3.1-0.1-5.1-1.1-5.7-1.9 0.3-0.1 0.6-0.3 0.9-0.5zm4.2-7.4c-0.1 0-0.1 0 0 0-0.6 0-1.1 0-1.6-0.1-0.4 0-0.8-0.1-1.2-0.2-1.2-0.3-2.1-0.7-2.7-1.1-0.5-0.4-0.8-0.8-0.8-1.1 0-0.1 0-0.2 0.1-0.3 0.1 0 0.1-0.1 0.2-0.1 0.4-0.1 0.7-0.3 1-0.5s0.7-0.4 0.9-0.6l0.6 0.6c0.1 0 0.1 0.1 0.2 0.1 0.4 0.3 0.9 0.6 1.4 0.9 1 0.5 2.1 0.9 3.4 1.1 0.4 0.1 0.7 0.1 1.1 0.1 0.2 0 0.5 0 0.7 0.1h0.9 0.7c-0.3 0.2-0.7 0.3-1.1 0.5-0.4 0.1-1 0.3-1.5 0.4-0.8 0.1-1.5 0.2-2.3 0.2zm1.6 5c0.5-0.4 1.3-0.8 2.4-1.1 0.1 0 0.1 0.1 0.2 0.1 0.1 0.1 0.3 0.2 0.4 0.3 0.8 0.5 1.7 0.9 2.7 1.1 0.8 0.2 1.6 0.4 2.5 0.4 0.5 0 1 0.1 1.5 0.1 0.7 0 1.3 0 1.9-0.1h0.2v0.1 0.1c0 0.6-1.1 1.6-3.2 2.1h-0.2c-0.8 0.2-1.8 0.3-3 0.3h-0.6c-0.6 0-1.1-0.1-1.6-0.2-2.1-0.3-3.5-1.2-4-1.8-0.1-0.2-0.2-0.3-0.2-0.5 0.2-0.2 0.5-0.6 1-0.9zm9.8-2c-1 0-1.8-0.1-2.5-0.2-0.8-0.2-1.5-0.4-2.1-0.6-0.3-0.1-0.6-0.3-0.8-0.5 0.7-0.3 1.2-0.7 1.7-1.1l0.2-0.2c0.7-0.6 1.1-1.3 1.3-2.1 0.4-0.1 0.8-0.1 1.3-0.1h1c0.6 0 1.2 0 1.7 0.1 0.3 0.1 0.7 0.2 1 0.2 0.3 0.1 0.6 0.1 0.9 0.2 1.8 0.5 2.7 1.4 2.7 1.9 0 0.1 0 0.2-0.1 0.3 0 0.1-0.1 0.1-0.1 0.2-0.4 0.5-1.4 1.2-2.9 1.5-0.3 0.1-0.6 0.1-1 0.2-0.8 0.1-1.5 0.2-2.3 0.2zm5 2.2c0.6-0.2 1.2-0.5 1.7-0.8 1.1 0.5 1.7 1.1 1.7 1.6 0 0.1 0 0.2-0.1 0.4-0.4 0.7-1.8 1.5-4 1.9 0.4-0.6 0.7-1.2 0.8-1.8v-0.4c0-0.4-0.1-0.7-0.1-0.9zm3.2-9.5c-0.7 0.1-1.4 0.2-2.3 0.2-0.5 0-1 0-1.4-0.1 1.2-0.1 2.2-0.3 3.2-0.6 1.8-0.6 3.2-1.5 4-2.6 0.4 0.3 0.6 0.6 0.6 0.9 0 0.6-1.4 1.7-4.1 2.2zm0.9 3.9c0.2-0.2 0.5-0.3 0.7-0.5 1.9 0.5 2.8 1.4 2.8 2 0 0.5-0.9 1.4-2.7 1.9-0.3-0.3-0.7-0.5-1-0.8 0.3-0.5 0.4-1.1 0.4-1.7 0-0.3-0.1-0.6-0.2-0.9zm6.1-5.7v-0.4c0-1.1-0.6-2.2-1.5-3 0.9-0.8 1.4-1.8 1.4-2.9 0-1.2-0.6-2.3-1.7-3.2 0.6-0.7 1-1.6 1-2.5 0-2.7-3.1-4.8-7.4-5.3-1.6-1.6-4.5-2.7-8.1-2.7-3.3 0-6.1 0.9-7.7 2.3-1.4-0.5-3.2-0.8-5.1-0.8-2.4 0-4.5 0.5-6.1 1.2-0.5 0-1-0.1-1.5-0.1-4.6 0-8.2 1.8-9.1 4.2v-17.4c4.3 4.4 12.9 7.3 23.1 7.3s18.8-2.9 23.1-7.3v30.9c0-0.1-0.2-0.2-0.4-0.3zm0.6 10.2c-0.1 4.7-9.6 10-23.1 10-9.5 0-17-2.6-20.6-5.7 1.5 0.6 3.3 0.9 5.2 0.9 1.2 0 2.3-0.1 3.3-0.3 1.1 2.3 4.6 3.9 8.9 3.9 2.5 0 4.8-0.5 6.4-1.4 1.1 0 2-0.1 3-0.3 1 0.2 2 0.3 3.1 0.3 5.3 0 9.3-2.3 9.3-5.4v-0.3c2.1-0.7 3.5-1.9 4-3.4 0.3 0.6 0.4 1.1 0.4 1.7 0.1-0.2 0.1-0.1 0.1 0v0z" style="fill:#ee8"/>
</svg>
