<svg viewBox="0 0 1000 420.09" xmlns="http://www.w3.org/2000/svg">
	<title>git logo</title>
  <style>path{fill:currentColor}</style>
  <path d="m599.31 142.96c-21.912 0-38.242 10.771-38.242 36.672 0 19.513 10.748 33.072 37.061 33.072 22.306 0 37.459-13.129 37.459-33.878 0-23.506-13.56-35.866-36.278-35.866zm-43.825 182.95c-5.188 6.365-10.359 13.143-10.359 21.12 0 15.936 20.305 20.717 48.207 20.717 23.13 0 54.614-1.612 54.614-23.094 0-12.79-15.149-13.578-34.29-14.778zm117.97-181.75c7.158 9.177 14.746 21.931 14.746 40.266 0 44.218-34.67 70.138-84.883 70.138-12.772 0-24.326-1.594-31.501-3.595l-13.143 21.125 39.044 2.382c68.961 4.396 109.6 6.402 109.6 59.385 0 45.83-40.248 71.736-109.6 71.736-72.125 0-99.633-18.336-99.633-49.824 0-17.938 7.977-27.477 21.931-40.657-13.166-5.545-17.53-15.51-17.53-26.28 0-8.765 4.364-16.743 11.554-24.327 7.171-7.565 15.135-15.135 24.706-23.9-19.517-9.57-34.277-30.302-34.277-59.797 0-45.83 30.283-77.3 91.267-77.3 17.136 0 27.495 1.576 36.672 3.994h77.721v33.86l-36.667 2.793"/>
  <path d="m780.24 71.729c-22.718 0-35.866-13.143-35.866-35.884 0-22.7 13.147-35.06 35.866-35.06 23.126 0 36.278 12.364 36.278 35.06 0 22.737-13.147 35.884-36.278 35.884zm-51.413 239.53v-31.488l20.323-2.7751c5.5823-0.8014 6.3837-2.0012 6.3837-7.9956v-117.16c0-4.3642-1.1952-7.1713-5.1839-8.3528l-21.523-7.5835 4.3825-32.271h82.502v165.38c0 6.4066 0.39383 7.1897 6.3883 7.9956l20.319 2.7751v31.483h-113.59"/>
  <path d="m1e3 295.79c-17.136 8.3574-42.236 15.941-64.968 15.941-47.424 0-65.348-19.119-65.348-64.18v-104.4c0-2.3996 0-3.9886-3.2056-3.9886h-27.902v-35.472c35.097-3.9887 49.032-21.537 53.414-64.973h37.872v56.601c0 2.7889 0 3.9841 3.1827 3.9841h56.189v39.859h-59.372v95.238c0 23.52 5.5777 32.679 27.101 32.679 11.16 0 22.714-2.7889 32.271-6.3654l10.766 35.078"/>
  <path d="m409.5 191.21-182.23-182.21a26.872 26.872 0 0 0-38.009 0l-37.84 37.835 47.992 48.01a31.896 31.896 0 0 1 32.848 7.6384 31.964 31.964 0 0 1 7.5835 33.04l46.261 46.275a31.886 31.886 0 0 1 33.036 7.5881 31.946 31.946 0 0 1 0 45.222 31.964 31.964 0 0 1-45.24 0 31.996 31.996 0 0 1-6.9561-34.776l-43.147-43.147v113.54a31.96 31.96 0 0 1 8.4627 6.0448 32.001 32.001 0 0 1 0 45.244c-12.502 12.483-32.756 12.483-45.222 0a31.964 31.964 0 0 1 0-45.244 31.566 31.566 0 0 1 10.464-6.9744v-114.59a31.566 31.566 0 0 1-10.464-6.9744 32.001 32.001 0 0 1-6.9057-34.973l-47.314-47.333-124.95 124.95a26.872 26.872 0 0 0 0 38.014l182.23 182.23a26.872 26.872 0 0 0 38.009 0l181.39-181.37a26.895 26.895 0 0 0 0-38.032" style="fill:#f03c2e"/>
</svg>
