<?xml version="1.0" encoding="UTF-8"?>
<svg version="1.1" xmlns="http://www.w3.org/2000/svg" viewBox="0 0 140 100">
 <path d="m9.8507 44.248 65.621-36.135m0.088-2.538 54.116 32.505" fill="none" stroke="#d3ccb0" stroke-miterlimit="10" stroke-width="5"/>
 <path d="m128.08 90.076-112.91 8.487c-6.474 0.482-12.162-4.418-12.643-10.893l-2.493-33.467c-0.482-6.475 4.418-12.162 10.893-12.643l112.91-8.487c6.474-0.481 12.162 4.419 12.643 10.893l2.493 33.467c0.482 6.475-4.418 12.162-10.893 12.643z" fill="#518abe"/>
 <path d="m21.906 52.584c3.282-0.262 6.169 0.219 8.663 1.357 2.449 1.181 4.418 2.931 5.818 5.293 1.4 2.363 2.231 5.25 2.494 8.575 0.175 2.45 0 4.724-0.482 6.781-0.525 2.056-1.4 3.893-2.624 5.468a13.044 13.044 0 0 1-4.638 3.762c-1.881 0.919-4.068 1.488-6.562 1.663s-4.768-0.044-6.781-0.7c-2.012-0.656-3.762-1.663-5.206-3.019-1.443-1.356-2.537-3.062-3.368-5.075-0.832-2.012-1.313-4.199-1.532-6.605-0.175-2.45 0-4.725 0.569-6.825s1.444-3.894 2.669-5.425c1.225-1.531 2.756-2.756 4.637-3.675 1.881-0.918 3.894-1.4 6.343-1.575zm10.412 15.706c-0.175-2.319-0.7-4.331-1.574-5.994-0.875-1.662-2.057-2.843-3.5-3.631-1.444-0.787-3.106-1.093-4.9-0.962a8.537 8.537 0 0 0-3.5 1.006c-1.05 0.569-1.925 1.356-2.668 2.319-0.7 1.006-1.269 2.231-1.619 3.675-0.35 1.487-0.438 3.106-0.306 4.899 0.131 1.794 0.481 3.413 1.05 4.856 0.568 1.444 1.312 2.581 2.187 3.5a8.122 8.122 0 0 0 6.606 2.363c1.662-0.132 3.15-0.657 4.462-1.575 1.313-0.919 2.319-2.275 3.019-4.069 0.656-1.75 0.918-3.893 0.743-6.387zm24.674 1.75-5.906 0.437 0.656 9.012c0.088 1.269-0.131 2.275-0.7 3.019-0.568 0.7-1.312 1.094-2.231 1.181-0.962 0.088-1.793-0.219-2.406-0.831-0.656-0.613-1.006-1.575-1.093-2.844l-1.838-24.542c-0.087-1.4 0.131-2.45 0.744-3.106 0.612-0.656 1.618-1.05 3.018-1.138l8.269-0.612c2.45-0.175 4.331-0.131 5.687 0.131a8.753 8.753 0 0 1 3.5 1.531c1.006 0.788 1.793 1.75 2.406 2.931 0.569 1.182 0.919 2.538 1.05 4.069 0.262 3.237-0.569 5.775-2.45 7.612-1.837 1.794-4.769 2.844-8.706 3.15zm-2.668-14.481-4.331 0.307 0.743 9.755 4.331-0.306c1.531-0.131 2.8-0.35 3.763-0.744 1.006-0.393 1.749-0.962 2.231-1.75 0.481-0.743 0.656-1.749 0.568-2.887-0.087-1.4-0.612-2.537-1.487-3.325-1.006-0.918-2.931-1.268-5.818-1.05zm39.897-2.843-14.524 1.093 0.569 7.831 13.387-1.006c1.006-0.087 1.75 0.088 2.275 0.481 0.525 0.394 0.787 0.963 0.875 1.706 0.043 0.744-0.132 1.313-0.569 1.838-0.438 0.525-1.181 0.787-2.144 0.831l-13.387 1.006 0.7 9.056 15.05-1.137c1.006-0.088 1.793 0.087 2.362 0.525 0.569 0.437 0.875 1.05 0.919 1.837 0.043 0.744-0.175 1.4-0.613 1.881-0.481 0.525-1.225 0.788-2.231 0.875l-17.543 1.312c-1.4 0.088-2.45-0.131-3.106-0.699-0.656-0.569-1.05-1.575-1.137-2.932l-1.794-23.93c-0.087-0.918 0-1.706 0.263-2.318 0.218-0.613 0.612-1.05 1.181-1.4 0.568-0.35 1.312-0.481 2.231-0.569l17.018-1.269c1.006-0.087 1.793 0.088 2.362 0.525 0.525 0.438 0.831 1.007 0.875 1.75 0.044 0.744-0.131 1.357-0.612 1.882-0.657 0.437-1.4 0.743-2.407 0.831zm16.975-2.931 13.824 17.849-1.4-18.943c-0.088-1.225 0.087-2.187 0.569-2.844 0.481-0.656 1.181-1.006 2.056-1.093 0.918-0.088 1.662 0.175 2.275 0.743 0.568 0.569 0.918 1.488 1.006 2.713l1.881 25.067c0.219 2.8-0.831 4.287-3.15 4.462-0.569 0.044-1.094 0-1.575-0.131a3.659 3.659 0 0 1-1.356-0.7c-0.437-0.35-0.831-0.744-1.225-1.181a17.53 17.53 0 0 1-1.137-1.4l-13.562-17.674 1.4 18.68c0.087 1.225-0.131 2.144-0.656 2.844-0.525 0.656-1.225 1.05-2.1 1.094-0.919 0.087-1.663-0.175-2.275-0.788-0.613-0.569-0.963-1.487-1.05-2.668l-1.837-24.587c-0.088-1.05-0.044-1.881 0.174-2.493 0.219-0.657 0.657-1.225 1.269-1.706 0.613-0.482 1.269-0.7 2.013-0.788 0.568-0.044 1.093 0 1.531 0.175a3.81 3.81 0 0 1 1.137 0.7c0.35 0.306 0.7 0.7 1.05 1.181 0.35 0.438 0.744 0.963 1.138 1.488z" fill="#fff"/>
 <path d="m81.71 5.3815a5.3815 5.3815 0 1 1-10.763 0 5.3815 5.3815 0 0 1 10.763 0z" fill="#f9f9f9"/>
</svg>
